<mxfile host="app.diagrams.net" agent="Mozilla/5.0 (Windows NT 10.0; Win64; x64) AppleWebKit/537.36 (KHTML, like Gecko) Chrome/126.0.0.0 Safari/537.36 Edg/126.0.0.0" version="26.0.16">
  <diagram name="第 1 页" id="8EItVtjwndKrS1JGXfhx">
    <mxGraphModel dx="1678" dy="933" grid="1" gridSize="9" guides="1" tooltips="1" connect="1" arrows="1" fold="1" page="1" pageScale="1" pageWidth="1200" pageHeight="1600" math="0" shadow="0">
      <root>
        <mxCell id="0" />
        <mxCell id="1" parent="0" />
        <mxCell id="gdJAsCPpcSy1h_G_5Ia9-2" value="" style="rounded=1;whiteSpace=wrap;html=1;" vertex="1" parent="1">
          <mxGeometry x="162" y="774" width="432" height="135" as="geometry" />
        </mxCell>
        <mxCell id="gdJAsCPpcSy1h_G_5Ia9-3" value="&lt;div&gt;&lt;br&gt;&lt;/div&gt;NF11" style="rounded=0;whiteSpace=wrap;html=1;" vertex="1" parent="1">
          <mxGeometry x="171" y="783" width="120" height="60" as="geometry" />
        </mxCell>
        <mxCell id="gdJAsCPpcSy1h_G_5Ia9-4" value="SF" style="rounded=0;whiteSpace=wrap;html=1;" vertex="1" parent="1">
          <mxGeometry x="468" y="783" width="120" height="60" as="geometry" />
        </mxCell>
        <mxCell id="gdJAsCPpcSy1h_G_5Ia9-5" value="0口" style="rounded=0;whiteSpace=wrap;html=1;" vertex="1" parent="1">
          <mxGeometry x="171" y="783" width="57" height="27" as="geometry" />
        </mxCell>
        <mxCell id="gdJAsCPpcSy1h_G_5Ia9-6" value="1口" style="rounded=0;whiteSpace=wrap;html=1;" vertex="1" parent="1">
          <mxGeometry x="237" y="783" width="54" height="27" as="geometry" />
        </mxCell>
      </root>
    </mxGraphModel>
  </diagram>
</mxfile>
